<?xml version="1.0" encoding="UTF-8" standalone="no"?><!DOCTYPE svg PUBLIC "-//W3C//DTD SVG 1.1//EN" "http://www.w3.org/Graphics/SVG/1.1/DTD/svg11.dtd"><svg width="100%" height="100%" viewBox="0 0 3334 2500" version="1.1" xmlns="http://www.w3.org/2000/svg" xmlns:xlink="http://www.w3.org/1999/xlink" xml:space="preserve" xmlns:serif="http://www.serif.com/" style="fill-rule:evenodd;clip-rule:evenodd;stroke-linejoin:round;stroke-miterlimit:2;"><path id="cloudversify.svg" d="M204.15,328.649c10.904,91.088 89.625,153.586 194.143,148.001c68.084,57.578 181.91,60.902 247.866,-7.447c92.018,1.463 157.575,-59.306 174.861,-132.31c19.681,-83.109 -24.201,-176.191 -122.469,-206.244c-43.882,-117.15 -174.729,-134.969 -247.998,-113.028c-76.195,23.005 -112.098,70.742 -132.044,145.873c-10.372,3.591 -35.239,11.835 -59.839,32.047c15.558,0 20.212,11.835 20.212,25.93l0,27.127c0,14.228 -11.569,25.93 -25.93,25.93l-26.861,0c-14.228,0 -25.93,-7.978 -25.93,-22.207l0,-8.776l-62.232,0c-5.053,0 -14.361,5.718 -14.361,15.824l-0,53.722c-0,8.51 7.047,15.691 15.558,15.691l65.024,-0l0,-0.133Zm302.385,10.638c-14.228,61.567 28.856,96.274 73.535,115.422c-142.549,44.946 -228.185,-67.551 -179.915,-147.336c-44.148,28.723 -44.812,94.678 -38.829,123.534c-23.802,-16.489 -71.54,-43.084 -76.327,-106.114c-3.989,-53.057 28.59,-100.662 75.796,-124.864c40.69,-21.01 137.629,-11.302 177.654,54.254c-18.749,-63.828 -71.541,-93.215 -135.368,-99.465c41.089,-40.823 85.635,-66.886 151.857,-58.11c92.816,12.367 177.122,110.103 90.024,200.127c46.541,-21.675 64.759,-72.338 63.163,-102.258l13.962,26.063c15.691,29.255 20.212,63.296 12.5,95.742c-12.234,51.861 -53.988,91.487 -105.981,101.726c-42.685,8.377 -110.502,-6.782 -122.071,-78.721Zm-329.778,-138.294l-52.924,0c-11.834,0 -21.541,-9.707 -21.541,-21.542l-0,-52.658c-0,-11.835 9.707,-21.542 21.541,-21.542l52.924,0c11.835,0 21.542,9.707 21.542,21.542l0,52.658c0,11.835 -9.707,21.542 -21.542,21.542Zm-156.777,-53.19c-7.446,0 -13.43,-5.984 -13.43,-13.43l-0,-36.967c-0,-7.447 5.984,-13.431 13.43,-13.431l36.834,0c7.314,0 13.431,5.984 13.431,13.431l-0,36.967c-0,7.446 -5.984,13.43 -13.431,13.43l-36.834,0Zm209.967,-33.642l0,-28.457c0,-6.782 5.585,-12.367 12.367,-12.367l28.457,0c6.781,0 12.366,5.585 12.366,12.367l0,28.457c0,6.781 -5.585,12.366 -12.366,12.366l-28.457,0c-6.782,0 -12.367,-5.585 -12.367,-12.366Zm-148.931,123.4l-0,33.244c-0,8.377 -6.782,15.292 -15.16,15.292l-33.509,0c-8.378,0 -15.159,-6.915 -15.159,-15.292l-0,-33.244c-0,-8.377 6.781,-15.292 15.159,-15.292l33.376,0c8.511,0 15.293,6.915 15.293,15.292Z" style="fill:#66ec83;fill-rule:nonzero;stroke:#000;stroke-width:7.88px;"/><g><path d="M3293.53,74.442c-0,-32.548 -26.385,-58.933 -58.933,-58.933c-334.873,-0 -1995.12,-0 -2334.06,-0c-16.042,-0 -31.426,6.372 -42.769,17.715c-11.343,11.343 -17.715,26.727 -17.715,42.769c-0,96.493 -0,274.503 -0,274.503l2453.47,0l-0,-276.054Z" style="fill:#adb2ae;stroke:#000;stroke-width:7.88px;stroke-linecap:round;stroke-miterlimit:1.5;"/><g><path d="M982.44,260.566l0,-189.404l-70.752,-0l0,-25.342l170.215,-0l0,25.342l-71.045,-0l0,189.404l-28.418,-0Z" style="fill-rule:nonzero;"/><path d="M1107.68,260.566l0,-214.746l26.367,-0l0,77.051c12.305,-14.258 27.833,-21.387 46.583,-21.387c11.523,-0 21.533,2.27 30.029,6.811c8.496,4.541 14.575,10.816 18.237,18.824c3.662,8.008 5.493,19.629 5.493,34.863l0,98.584l-26.367,-0l0,-98.584c0,-13.184 -2.856,-22.778 -8.569,-28.784c-5.713,-6.006 -13.794,-9.009 -24.243,-9.009c-7.813,0 -15.162,2.026 -22.046,6.079c-6.885,4.053 -11.792,9.546 -14.722,16.48c-2.93,6.933 -4.395,16.504 -4.395,28.711l0,85.107l-26.367,-0Z" style="fill-rule:nonzero;"/><path d="M1381.02,210.468l27.246,3.369c-4.297,15.918 -12.256,28.272 -23.877,37.061c-11.621,8.789 -26.465,13.184 -44.531,13.184c-22.754,-0 -40.796,-7.007 -54.126,-21.021c-13.33,-14.014 -19.995,-33.667 -19.995,-58.96c-0,-26.172 6.738,-46.484 20.215,-60.937c13.476,-14.454 30.957,-21.68 52.441,-21.68c20.801,-0 37.793,7.08 50.977,21.24c13.183,14.16 19.775,34.082 19.775,59.766c0,1.562 -0.049,3.906 -0.146,7.031l-116.016,0c0.977,17.09 5.811,30.176 14.502,39.258c8.691,9.082 19.531,13.623 32.52,13.623c9.667,-0 17.919,-2.539 24.755,-7.617c6.836,-5.078 12.256,-13.184 16.26,-24.317Zm-86.572,-42.627l86.865,0c-1.172,-13.086 -4.492,-22.9 -9.961,-29.443c-8.398,-10.156 -19.287,-15.234 -32.666,-15.234c-12.109,-0 -22.29,4.052 -30.542,12.158c-8.252,8.105 -12.817,18.945 -13.696,32.519Z" style="fill-rule:nonzero;"/><path d="M1565.59,260.566l-56.982,-214.746l29.15,-0l32.666,140.771c3.516,14.746 6.543,29.395 9.082,43.946c5.469,-22.95 8.692,-36.182 9.668,-39.698l40.87,-145.019l34.277,-0l30.762,108.691c7.714,26.953 13.281,52.295 16.699,76.026c2.734,-13.575 6.299,-29.151 10.693,-46.729l33.692,-137.988l28.564,-0l-58.887,214.746l-27.392,-0l-45.264,-163.623c-3.808,-13.672 -6.055,-22.07 -6.738,-25.195c-2.246,9.863 -4.346,18.261 -6.299,25.195l-45.557,163.623l-29.004,-0Z" style="fill-rule:nonzero;"/><path d="M1908.95,210.468l27.246,3.369c-4.297,15.918 -12.256,28.272 -23.877,37.061c-11.621,8.789 -26.465,13.184 -44.531,13.184c-22.754,-0 -40.796,-7.007 -54.126,-21.021c-13.33,-14.014 -19.995,-33.667 -19.995,-58.96c-0,-26.172 6.738,-46.484 20.214,-60.937c13.477,-14.454 30.957,-21.68 52.442,-21.68c20.801,-0 37.793,7.08 50.976,21.24c13.184,14.16 19.776,34.082 19.776,59.766c-0,1.562 -0.049,3.906 -0.147,7.031l-116.015,0c0.976,17.09 5.81,30.176 14.502,39.258c8.691,9.082 19.531,13.623 32.519,13.623c9.668,-0 17.92,-2.539 24.756,-7.617c6.836,-5.078 12.256,-13.184 16.26,-24.317Zm-86.572,-42.627l86.865,0c-1.172,-13.086 -4.492,-22.9 -9.961,-29.443c-8.399,-10.156 -19.287,-15.234 -32.666,-15.234c-12.11,-0 -22.29,4.052 -30.542,12.158c-8.252,8.105 -12.818,18.945 -13.696,32.519Z" style="fill-rule:nonzero;"/><path d="M2070.82,241.377c-9.766,8.3 -19.165,14.16 -28.198,17.578c-9.033,3.418 -18.726,5.127 -29.077,5.127c-17.09,-0 -30.225,-4.175 -39.405,-12.525c-9.179,-8.349 -13.769,-19.018 -13.769,-32.007c-0,-7.617 1.733,-14.575 5.2,-20.874c3.467,-6.299 8.008,-11.352 13.623,-15.161c5.615,-3.808 11.939,-6.689 18.97,-8.642c5.176,-1.368 12.988,-2.686 23.437,-3.955c21.289,-2.54 36.963,-5.567 47.022,-9.083c0.097,-3.613 0.146,-5.908 0.146,-6.884c0,-10.742 -2.49,-18.311 -7.47,-22.705c-6.739,-5.957 -16.748,-8.936 -30.03,-8.936c-12.402,0 -21.557,2.173 -27.466,6.519c-5.908,4.345 -10.278,12.036 -13.11,23.071l-25.781,-3.516c2.344,-11.035 6.201,-19.946 11.572,-26.733c5.371,-6.787 13.135,-12.012 23.291,-15.674c10.156,-3.662 21.924,-5.493 35.303,-5.493c13.281,-0 24.072,1.562 32.373,4.687c8.301,3.125 14.404,7.056 18.31,11.792c3.907,4.737 6.641,10.718 8.204,17.945c0.878,4.492 1.318,12.597 1.318,24.316l-0,35.156c-0,24.512 0.561,40.015 1.685,46.509c1.123,6.494 3.344,12.72 6.665,18.677l-27.54,-0c-2.734,-5.469 -4.492,-11.865 -5.273,-19.189Zm-2.197,-58.887c-9.571,3.906 -23.926,7.226 -43.067,9.961c-10.839,1.562 -18.505,3.32 -22.998,5.273c-4.492,1.953 -7.959,4.81 -10.4,8.569c-2.441,3.76 -3.662,7.935 -3.662,12.525c-0,7.031 2.661,12.891 7.983,17.578c5.323,4.688 13.111,7.031 23.364,7.031c10.157,0 19.19,-2.221 27.1,-6.665c7.91,-4.443 13.721,-10.522 17.432,-18.237c2.832,-5.957 4.248,-14.746 4.248,-26.367l-0,-9.668Z" style="fill-rule:nonzero;"/><path d="M2193.72,236.982l3.809,23.291c-7.422,1.562 -14.062,2.344 -19.922,2.344c-9.57,-0 -16.992,-1.514 -22.265,-4.541c-5.274,-3.028 -8.985,-7.007 -11.133,-11.939c-2.149,-4.931 -3.223,-15.307 -3.223,-31.128l0,-89.502l-19.336,0l0,-20.507l19.336,-0l0,-38.526l26.221,-15.82l-0,54.346l26.513,-0l0,20.507l-26.513,0l-0,90.967c-0,7.52 0.464,12.354 1.391,14.502c0.928,2.149 2.442,3.858 4.541,5.127c2.1,1.27 5.103,1.904 9.009,1.904c2.93,0 6.787,-0.341 11.572,-1.025Z" style="fill-rule:nonzero;"/><path d="M2219.5,260.566l-0,-214.746l26.367,-0l-0,77.051c12.305,-14.258 27.832,-21.387 46.582,-21.387c11.523,-0 21.533,2.27 30.029,6.811c8.496,4.541 14.575,10.816 18.238,18.824c3.662,8.008 5.493,19.629 5.493,34.863l-0,98.584l-26.368,-0l0,-98.584c0,-13.184 -2.856,-22.778 -8.569,-28.784c-5.713,-6.006 -13.794,-9.009 -24.243,-9.009c-7.813,0 -15.161,2.026 -22.046,6.079c-6.885,4.053 -11.792,9.546 -14.722,16.48c-2.929,6.933 -4.394,16.504 -4.394,28.711l-0,85.107l-26.367,-0Z" style="fill-rule:nonzero;"/><path d="M2492.84,210.468l27.246,3.369c-4.297,15.918 -12.256,28.272 -23.877,37.061c-11.621,8.789 -26.465,13.184 -44.532,13.184c-22.753,-0 -40.795,-7.007 -54.126,-21.021c-13.33,-14.014 -19.995,-33.667 -19.995,-58.96c0,-26.172 6.739,-46.484 20.215,-60.937c13.477,-14.454 30.957,-21.68 52.442,-21.68c20.8,-0 37.793,7.08 50.976,21.24c13.184,14.16 19.776,34.082 19.776,59.766c-0,1.562 -0.049,3.906 -0.147,7.031l-116.016,0c0.977,17.09 5.811,30.176 14.502,39.258c8.692,9.082 19.532,13.623 32.52,13.623c9.668,-0 17.92,-2.539 24.756,-7.617c6.836,-5.078 12.256,-13.184 16.26,-24.317Zm-86.573,-42.627l86.866,0c-1.172,-13.086 -4.493,-22.9 -9.961,-29.443c-8.399,-10.156 -19.288,-15.234 -32.666,-15.234c-12.11,-0 -22.29,4.052 -30.542,12.158c-8.252,8.105 -12.818,18.945 -13.697,32.519Z" style="fill-rule:nonzero;"/><path d="M2552.9,260.566l0,-155.566l23.731,-0l-0,23.584c6.054,-11.036 11.645,-18.311 16.772,-21.827c5.127,-3.515 10.767,-5.273 16.919,-5.273c8.887,-0 17.92,2.832 27.1,8.496l-9.082,24.463c-6.446,-3.809 -12.891,-5.713 -19.336,-5.713c-5.762,0 -10.938,1.733 -15.528,5.2c-4.59,3.467 -7.861,8.277 -9.814,14.429c-2.93,9.375 -4.395,19.629 -4.395,30.762l0,81.445l-26.367,-0Z" style="fill-rule:nonzero;"/><path d="M2699.68,260.566l82.471,-214.746l30.615,-0l87.891,214.746l-32.373,-0l-25.049,-65.039l-89.795,-0l-23.584,65.039l-30.176,-0Zm61.963,-88.184l72.803,0l-22.412,-59.472c-6.836,-18.067 -11.914,-32.91 -15.234,-44.532c-2.735,13.77 -6.592,27.442 -11.573,41.016l-23.584,62.988Z" style="fill-rule:nonzero;"/><path d="M2919.99,320.185l-0,-215.185l24.023,-0l0,20.214c5.664,-7.91 12.061,-13.842 19.19,-17.797c7.129,-3.956 15.771,-5.933 25.928,-5.933c13.281,-0 25,3.418 35.156,10.254c10.156,6.836 17.822,16.479 22.998,28.93c5.176,12.452 7.764,26.099 7.764,40.943c-0,15.918 -2.857,30.249 -8.57,42.993c-5.713,12.744 -14.013,22.51 -24.902,29.297c-10.889,6.787 -22.339,10.181 -34.351,10.181c-8.789,-0 -16.674,-1.856 -23.657,-5.567c-6.982,-3.711 -12.72,-8.398 -17.212,-14.062l0,75.732l-26.367,0Zm23.877,-136.523c-0,20.019 4.053,34.814 12.158,44.384c8.106,9.571 17.92,14.356 29.443,14.356c11.719,-0 21.753,-4.956 30.103,-14.868c8.35,-9.912 12.524,-25.269 12.524,-46.07c0,-19.824 -4.077,-34.668 -12.231,-44.531c-8.154,-9.863 -17.896,-14.795 -29.224,-14.795c-11.23,0 -21.167,5.249 -29.809,15.747c-8.643,10.498 -12.964,25.757 -12.964,45.777Z" style="fill-rule:nonzero;"/><path d="M3086.84,320.185l-0,-215.185l24.023,-0l0,20.214c5.664,-7.91 12.061,-13.842 19.19,-17.797c7.128,-3.956 15.771,-5.933 25.927,-5.933c13.282,-0 25,3.418 35.157,10.254c10.156,6.836 17.822,16.479 22.998,28.93c5.175,12.452 7.763,26.099 7.763,40.943c0,15.918 -2.856,30.249 -8.569,42.993c-5.713,12.744 -14.014,22.51 -24.902,29.297c-10.889,6.787 -22.339,10.181 -34.351,10.181c-8.789,-0 -16.675,-1.856 -23.657,-5.567c-6.983,-3.711 -12.72,-8.398 -17.212,-14.062l-0,75.732l-26.367,0Zm23.877,-136.523c-0,20.019 4.052,34.814 12.158,44.384c8.105,9.571 17.92,14.356 29.443,14.356c11.719,-0 21.753,-4.956 30.103,-14.868c8.349,-9.912 12.524,-25.269 12.524,-46.07c0,-19.824 -4.077,-34.668 -12.231,-44.531c-8.155,-9.863 -17.896,-14.795 -29.224,-14.795c-11.23,0 -21.167,5.249 -29.809,15.747c-8.643,10.498 -12.964,25.757 -12.964,45.777Z" style="fill-rule:nonzero;"/></g></g></svg>